<svg version="1.2" xmlns="http://www.w3.org/2000/svg" viewBox="0 0 982 205" width="982" height="205"><defs><linearGradient id="P" gradientUnits="userSpaceOnUse"/><linearGradient id="g1" x2="1" href="#P" gradientTransform="matrix(0,182.51,-1129.081,0,135.389,-34.274)"><stop stop-color="#5b247a"/><stop offset="1" stop-color="#1bcedf"/></linearGradient></defs><style>.a{fill:#3d73a9}.b{fill:url(#g1)}</style><path fill-rule="evenodd" class="a" d="m981.1 153.2c0.9 10.9-6.7 20.6-17.5 22.3-10.7 1.7-21-5.1-23.6-15.7h-898c-2.5 10.3-12.3 17.1-22.8 15.8-10.5-1.2-18.4-10.1-18.4-20.7 0-10.6 7.9-19.5 18.4-20.7 10.5-1.3 20.3 5.5 22.8 15.8h898c2.3-9.4 10.7-16 20.3-16 10.9 0 20 8.3 20.8 19.2zm-5 3.4c0.9-8.1-4.5-15.5-12.5-17.2-8-1.7-15.9 2.9-18.5 10.6q-0.8 2.4-0.8 4.9 0 2.5 0.8 4.9c2.1 6.6 8.3 11.1 15.2 11.1 8.1 0 15-6.2 15.8-14.3zm-939.2-6.6c-2.4-7.5-9.9-12.1-17.7-10.9-7.8 1.2-13.5 7.9-13.5 15.8 0 7.9 5.7 14.6 13.5 15.8 7.8 1.2 15.3-3.4 17.7-10.9q0.8-2.4 0.8-4.9 0-2.5-0.8-4.9z"/><path fill-rule="evenodd" class="a" d="m826.7 189.9c0.5 7-4.4 13.3-11.4 14.4-7 1.1-13.6-3.3-15.3-10.2h-581.8c-1.6 6.7-7.9 11.1-14.7 10.3-6.9-0.8-12-6.6-12-13.5 0-6.8 5.1-12.6 12-13.4 6.8-0.8 13.1 3.6 14.7 10.3h581.8c1.5-6.1 6.9-10.4 13.1-10.4 7.1 0 13 5.4 13.6 12.5zm-3.3 2.2c0.6-5.3-2.9-10.1-8.1-11.2-5.2-1.1-10.3 1.9-12 6.9q-0.5 1.5-0.5 3.1 0 1.7 0.5 3.2c1.4 4.3 5.4 7.2 9.8 7.2 5.3 0 9.7-4 10.3-9.2zm-608.5-4.3c-1.6-4.9-6.4-7.9-11.5-7.1-5 0.8-8.7 5.2-8.7 10.2 0 5.1 3.7 9.5 8.7 10.3 5.1 0.8 9.9-2.2 11.5-7.1q0.5-1.5 0.5-3.2 0-1.6-0.5-3.1z"/><path fill-rule="evenodd" class="b" d="m162.8 107.6h-11.3v-104.9h44.4v9.7h-33.1v37.1h26.6v9.7h-26.6zm53.2-20.2v-64.5q0-10.8 6.8-16.7 6.9-5.9 20.5-5.9 13.7 0 20.6 5.9 6.9 5.9 6.9 16.7v64.5q0 10.8-6.8 16.8-6.9 5.9-20.5 5.9-13.7 0-20.6-5.9-6.9-6-6.9-16.8zm11.2-64.5v64.5q0 13 16.2 13 16.1 0 16.1-13v-64.5q0-12.9-16.1-12.9-16.2 0-16.2 12.9zm84.8 84.7h-11.3v-104.9h24.3q12.6 0 19.2 6 6.5 5.9 6.5 16.7v22.5q0 16.5-14.2 20.9l19.8 38.8h-12.4l-18.9-37.1h-13zm0-95.2v48.4h13q14.4 0 14.4-12.9v-22.6q0-6.1-3.7-9.5-3.7-3.4-10.7-3.4zm78.2 95.2h-11.2v-104.9h16.9l18.4 69.2 18.6-69.2h16.9v104.9h-11.2v-86.8l-19 70.6h-10.4l-19-70.6zm93.4 0h-11.2l23.7-104.9h16.9l23.7 104.9h-11.2l-5.5-24.2h-30.8zm20.8-92.3l-13.2 58.4h26.4zm54.8-2.9h-21v-9.7h53.3v9.7h-21v95.2h-11.3zm64.5 95.2h-11.3v-104.9h24.4q12.6 0 19.1 5.9 6.5 6 6.5 16.7v22.5q0 16.5-14.2 21l19.9 38.8h-12.4l-18.9-37.2h-13.1zm0-95.2v48.4h13.1q14.3 0 14.3-12.9v-22.5q0-6.2-3.7-9.6-3.7-3.4-10.6-3.4zm64.5 75.1v-64.6q0-10.8 6.9-16.7 6.8-5.9 20.4-5.9 13.7 0 20.6 5.9 6.9 5.9 6.9 16.7v64.6q0 10.8-6.8 16.7-6.9 5.9-20.5 5.9-13.6 0-20.6-5.9-6.9-5.9-6.9-16.7zm11.3-64.6v64.6q0 12.9 16.1 12.9 16.2 0 16.2-12.9v-64.6q0-12.9-16.2-12.9-16.1 0-16.1 12.9zm84.7 84.7h-11.3v-104.8h11.3l35 80.7v-80.7h11.3v104.8h-11.3l-35-80.7z"/></svg>