<?xml version="1.0" encoding="UTF-8" standalone="no" ?>
<!DOCTYPE svg PUBLIC "-//W3C//DTD SVG 1.1//EN" "http://www.w3.org/Graphics/SVG/1.1/DTD/svg11.dtd">
<svg xmlns="http://www.w3.org/2000/svg" xmlns:xlink="http://www.w3.org/1999/xlink" version="1.1" width="1280" height="1024" viewBox="0 0 1280 1024" xml:space="preserve">
<desc>Created with Fabric.js 5.3.0</desc>
<defs>
</defs>
<g transform="matrix(1 0 0 1 640 512)" id="background-logo"  >
<rect style="stroke: none; stroke-width: 0; stroke-dasharray: none; stroke-linecap: butt; stroke-dashoffset: 0; stroke-linejoin: miter; stroke-miterlimit: 4; fill: rgb(255,255,255); fill-opacity: 0; fill-rule: nonzero; opacity: 1;"  paint-order="stroke"  x="-640" y="-512" rx="0" ry="0" width="1280" height="1024" />
</g>
<g transform="matrix(1.9211538461538462 0 0 1.9211538461538462 639.9999999999998 596.0402089504435)" id="logo-logo"  >
<g style=""  paint-order="stroke"   >
		<g transform="matrix(2.5513714140010517 0 0 2.5513714140010517 5.684342e-14 -7.361293782857899)"  >
<g style=""  paint-order="stroke"   >
		<g transform="matrix(1 0 0 1 0 0)"  >
<path style="stroke: none; stroke-width: 1; stroke-dasharray: none; stroke-linecap: butt; stroke-dashoffset: 0; stroke-linejoin: miter; stroke-miterlimit: 4; fill: rgb(61,115,169); fill-rule: nonzero; opacity: 1;"  paint-order="stroke"  transform=" translate(-100.00008900942497, -4.7400949027532)" d="M 195.74 0.48 C 193.7765640802546 0.48505585570057014 192.07089546926193 1.8314189723679013 191.61 3.74 L 8.39 3.7399999999999998 C 7.883435629988748 1.6423341310776776 5.888340725783624 0.2547928938464845 3.74550411962515 0.5098631545860983 C 1.6026675134666766 0.7649334153257121 -0.010966070858346555 2.582035783752075 -0.010966070858344779 4.740000000000004 C -0.010966070858343002 6.897964216247933 1.6026675134666846 8.715066584674291 3.745504119625158 8.970136845413903 C 5.888340725783632 9.225207106153512 7.883435629988752 7.83766586892232 8.39 5.739999999999997 L 191.61 5.74 C 192.13202241480707 7.901644838305183 194.22893785577736 9.298083775067006 196.42473168901228 8.94636620305806 C 198.62052552224722 8.594648631049116 200.17636519181386 6.613119172956978 199.99709822975302 4.396572497417324 C 199.81783126769216 2.1800258218776705 197.9637767557724 0.4742773241459508 195.74 0.4800000000000004 Z M 195.74 8 C 194.32851915534184 7.997591054716266 193.0799573509074 7.084403456650952 192.65 5.74 C 192.5425998203386 5.417303688778792 192.4852681809175 5.080058751007673 192.48000000000002 4.74 C 192.4852681809175 4.399941248992327 192.5425998203386 4.0626963112212096 192.65 3.7400000000000007 C 193.1666631357828 2.1597898460811624 194.79258881110474 1.22428543624725 196.4183951836935 1.5717887675621318 C 198.04420155628222 1.919292098877014 199.1456134726522 3.437743478726884 198.9711289426271 5.0910916196842075 C 198.796644412602 6.744439760641531 197.40252960988005 7.9995280919239535 195.74 8 Z M 7.52 4.74 C 7.514731819082502 5.080058751007673 7.457400179661411 5.417303688778793 7.35 5.74 C 6.857655836840264 7.267663888610826 5.32660468725758 8.209663454538436 3.741025236119846 7.960469683162083 C 2.1554457849821116 7.711275911785729 0.9871625888551625 6.345041971900738 0.9871625888551625 4.74 C 0.9871625888551625 3.1349580280992626 2.1554457849821107 1.7687240882142707 3.741025236119845 1.5195303168379173 C 5.326604687257579 1.2703365454615634 6.857655836840264 2.212336111389174 7.35 3.7399999999999993 C 7.457400179661412 4.062696311221208 7.514731819082501 4.3999412489923255 7.52 4.739999999999998 Z" stroke-linecap="round" />
</g>
</g>
</g>
		<g transform="matrix(1.652933751991453 0 0 1.652933751991453 9.428514301828386 11.404263261901121)"  >
<g style=""  paint-order="stroke"   >
		<g transform="matrix(1 0 0 1 0 0)"  >
<path style="stroke: none; stroke-width: 1; stroke-dasharray: none; stroke-linecap: butt; stroke-dashoffset: 0; stroke-linejoin: miter; stroke-miterlimit: 4; fill: rgb(61,115,169); fill-rule: nonzero; opacity: 1;"  paint-order="stroke"  transform=" translate(-100.00008900942497, -4.7400949027532)" d="M 195.74 0.48 C 193.7765640802546 0.48505585570057014 192.07089546926193 1.8314189723679013 191.61 3.74 L 8.39 3.7399999999999998 C 7.883435629988748 1.6423341310776776 5.888340725783624 0.2547928938464845 3.74550411962515 0.5098631545860983 C 1.6026675134666766 0.7649334153257121 -0.010966070858346555 2.582035783752075 -0.010966070858344779 4.740000000000004 C -0.010966070858343002 6.897964216247933 1.6026675134666846 8.715066584674291 3.745504119625158 8.970136845413903 C 5.888340725783632 9.225207106153512 7.883435629988752 7.83766586892232 8.39 5.739999999999997 L 191.61 5.74 C 192.13202241480707 7.901644838305183 194.22893785577736 9.298083775067006 196.42473168901228 8.94636620305806 C 198.62052552224722 8.594648631049116 200.17636519181386 6.613119172956978 199.99709822975302 4.396572497417324 C 199.81783126769216 2.1800258218776705 197.9637767557724 0.4742773241459508 195.74 0.4800000000000004 Z M 195.74 8 C 194.32851915534184 7.997591054716266 193.0799573509074 7.084403456650952 192.65 5.74 C 192.5425998203386 5.417303688778792 192.4852681809175 5.080058751007673 192.48000000000002 4.74 C 192.4852681809175 4.399941248992327 192.5425998203386 4.0626963112212096 192.65 3.7400000000000007 C 193.1666631357828 2.1597898460811624 194.79258881110474 1.22428543624725 196.4183951836935 1.5717887675621318 C 198.04420155628222 1.919292098877014 199.1456134726522 3.437743478726884 198.9711289426271 5.0910916196842075 C 198.796644412602 6.744439760641531 197.40252960988005 7.9995280919239535 195.74 8 Z M 7.52 4.74 C 7.514731819082502 5.080058751007673 7.457400179661411 5.417303688778793 7.35 5.74 C 6.857655836840264 7.267663888610826 5.32660468725758 8.209663454538436 3.741025236119846 7.960469683162083 C 2.1554457849821116 7.711275911785729 0.9871625888551625 6.345041971900738 0.9871625888551625 4.74 C 0.9871625888551625 3.1349580280992626 2.1554457849821107 1.7687240882142707 3.741025236119845 1.5195303168379173 C 5.326604687257579 1.2703365454615634 6.857655836840264 2.212336111389174 7.35 3.7399999999999993 C 7.457400179661412 4.062696311221208 7.514731819082501 4.3999412489923255 7.52 4.739999999999998 Z" stroke-linecap="round" />
</g>
</g>
</g>
</g>
</g>
<g transform="matrix(1.9211538461538462 0 0 1.9211538461538462 640.0173354116587 482.15438147305804)" id="text-logo"  >
<g style=""  paint-order="stroke"   >
		<g transform="matrix(1 0 0 1 0 0)" id="text-logo-path-0"  >
<linearGradient id="SVGID_1133650" gradientUnits="userSpaceOnUse" gradientTransform="matrix(1 0 0 1 8.409999999999997 -55.86)"  x1="-8.396718749999991" y1="-17.984478750000022" x2="-8.396718749999991" y2="77.01552124999998">
<stop offset="0%" style="stop-color:rgb(91,36,122);stop-opacity: 1"/>
<stop offset="100%" style="stop-color:rgb(27,206,223);stop-opacity: 1"/>
</linearGradient>
<path style="stroke: none; stroke-width: 1; stroke-dasharray: none; stroke-linecap: butt; stroke-dashoffset: 0; stroke-linejoin: miter; stroke-miterlimit: 4; fill: url(#SVGID_1133650); fill-rule: nonzero; opacity: 1;"  paint-order="stroke"  transform=" translate(-185.12499999999997, 27.294999999999998)" d="M 14.27 0 L 8.41 0 L 8.41 -54.59 L 31.5 -54.59 L 31.5 -49.55 L 14.27 -49.55 L 14.27 -30.23 L 28.14 -30.23 L 28.14 -25.18 L 14.27 -25.18 L 14.27 0 Z M 41.96 -10.5 L 41.96 -10.5 L 41.96 -44.09 Q 41.96 -49.71 45.53 -52.79 Q 49.1 -55.86 56.19 -55.86 Q 63.29 -55.86 66.9 -52.79 Q 70.51 -49.71 70.51 -44.09 L 70.51 -44.09 L 70.51 -10.5 Q 70.51 -4.88 66.94 -1.8 Q 63.37 1.27 56.27 1.27 Q 49.18 1.27 45.57 -1.8 Q 41.96 -4.88 41.96 -10.5 Z M 47.82 -44.09 L 47.82 -10.5 Q 47.82 -3.77 56.23 -3.77 Q 64.64 -3.77 64.64 -10.5 L 64.64 -10.5 L 64.64 -44.09 Q 64.64 -50.82 56.23 -50.82 Q 47.82 -50.82 47.82 -44.09 L 47.82 -44.09 Z M 91.92 0 L 86.05 0 L 86.05 -54.59 L 98.72 -54.59 Q 105.29 -54.59 108.69 -51.5 Q 112.1 -48.4 112.1 -42.82 L 112.1 -42.82 L 112.1 -31.09 Q 112.1 -22.52 104.67 -20.18 L 104.67 -20.18 L 115.01 0 L 108.57 0 L 98.72 -19.32 L 91.92 -19.32 L 91.92 0 Z M 91.92 -49.55 L 91.92 -24.36 L 98.72 -24.36 Q 106.19 -24.36 106.19 -31.09 L 106.19 -31.09 L 106.19 -42.82 Q 106.19 -46.02 104.26 -47.78 Q 102.33 -49.55 98.72 -49.55 L 98.72 -49.55 L 91.92 -49.55 Z M 132.64 0 L 126.78 0 L 126.78 -54.59 L 135.6 -54.59 L 145.15 -18.58 L 154.83 -54.59 L 163.65 -54.59 L 163.65 0 L 157.79 0 L 157.79 -45.2 L 147.94 -8.41 L 142.49 -8.41 L 132.64 -45.2 L 132.64 0 Z M 181.25 0 L 175.38 0 L 187.73 -54.59 L 196.55 -54.59 L 208.89 0 L 203.03 0 L 200.16 -12.59 L 184.12 -12.59 L 181.25 0 Z M 192.08 -48.03 L 185.23 -17.64 L 198.97 -17.64 L 192.08 -48.03 Z M 220.62 -49.55 L 209.67 -49.55 L 209.67 -54.59 L 237.4 -54.59 L 237.4 -49.55 L 226.49 -49.55 L 226.49 0 L 220.62 0 L 220.62 -49.55 Z M 254.17 0 L 248.31 0 L 248.31 -54.59 L 260.98 -54.59 Q 267.54 -54.59 270.95 -51.5 Q 274.35 -48.4 274.35 -42.82 L 274.35 -42.82 L 274.35 -31.09 Q 274.35 -22.52 266.93 -20.18 L 266.93 -20.18 L 277.27 0 L 270.83 0 L 260.98 -19.32 L 254.17 -19.32 L 254.17 0 Z M 254.17 -49.55 L 254.17 -24.36 L 260.98 -24.36 Q 268.45 -24.36 268.45 -31.09 L 268.45 -31.09 L 268.45 -42.82 Q 268.45 -46.02 266.52 -47.78 Q 264.59 -49.55 260.98 -49.55 L 260.98 -49.55 L 254.17 -49.55 Z M 287.77 -10.5 L 287.77 -10.5 L 287.77 -44.09 Q 287.77 -49.71 291.33 -52.79 Q 294.9 -55.86 302 -55.86 Q 309.09 -55.86 312.7 -52.79 Q 316.31 -49.71 316.31 -44.09 L 316.31 -44.09 L 316.31 -10.5 Q 316.31 -4.88 312.74 -1.8 Q 309.18 1.27 302.08 1.27 Q 294.98 1.27 291.38 -1.8 Q 287.77 -4.88 287.77 -10.5 Z M 293.63 -44.09 L 293.63 -10.5 Q 293.63 -3.77 302.04 -3.77 Q 310.45 -3.77 310.45 -10.5 L 310.45 -10.5 L 310.45 -44.09 Q 310.45 -50.82 302.04 -50.82 Q 293.63 -50.82 293.63 -44.09 L 293.63 -44.09 Z M 337.72 0 L 331.86 0 L 331.86 -54.59 L 337.72 -54.59 L 355.97 -12.59 L 355.97 -54.59 L 361.84 -54.59 L 361.84 0 L 355.97 0 L 337.72 -42 L 337.72 0 Z" stroke-linecap="round" />
</g>
</g>
</g>
</svg>